Coordinates
version=1
nRows=10
nColumns=33
inDegrees=yes

Units are S.I. units (second, meters, Newtons, ...)
Angles are in degrees.

endheader
time	ground_thorax_rot_x	ground_thorax_rot_y	ground_thorax_rot_z	ground_thorax_tx	ground_thorax_ty	ground_thorax_tz	clav_prot_r	clav_elev_r	scapula_abduction_r	scapula_elevation_r	scapula_upward_rot_r	scapula_winging_r	shoulder_elv_r	plane_of_elev_r	axial_rot_r	elbow_flexion_r	pro_sup_r	wrist_flex_r	wrist_dev_r	clav_prot_l	clav_elev_l	scapula_abduction_l	scapula_elevation_l	scapula_upward_rot_l	scapula_winging_l	shoulder_elv_l	plane_of_elev_l	axial_rot_l	elbow_flexion_l	pro_sup_l	wrist_flex_l	wrist_dev_l
      1.35000000	    -40.17135525	     -2.18480236	      1.10297402	    -54.61606479	    790.62125123	      5.25674270	      5.13639829	    -45.00000000	     45.00000000	    -45.00000000	     -8.19636261	  -2246.41108723	  -1370.68763636	     33.15452809	     23.88902838	   1087.31899501	     31.81094993	     17.39123832	     13.47497224	     17.08755684	     42.76379571	    -45.00000000	    -45.00000000	    -28.48597704	    792.94780302	  -2430.29277083	     20.15469356	   -179.99999979	    354.97770685	   -221.34797584	      6.66910320	    -12.54258304
      1.36000000	    -40.23977690	     -2.04322886	      0.88195554	    -55.52745824	    791.42063487	      5.53542020	      5.00617680	    -45.00000000	     45.00000000	    -45.00000000	     -7.76677563	  -2246.61148941	  -1370.54016708	     33.20929214	     24.47631115	   1087.50928921	     32.00430368	     17.31159848	     13.40464169	     16.71037034	     42.33725690	    -45.00000000	    -45.00000000	    -27.77972768	    793.57470042	  -2430.70457653	     20.43480753	   -179.99999979	    354.96898429	   -221.52508603	      6.66735334	    -12.69172180
      1.37000000	    -40.26690416	     -1.85366452	      0.72914570	    -56.79994763	    792.20117265	      5.82857754	      4.86483496	    -45.00000000	     45.00000000	    -45.00000000	     -7.42445870	  -2246.91021769	  -1370.26796617	     33.23129350	     24.95268110	   1087.78519215	     31.98978419	     17.51964053	     13.03793323	     16.56669846	     43.03239733	    -45.00000000	    -45.00000000	    -27.83770307	    793.47914178	  -2430.23413518	     20.18535500	   -179.99999979	    354.61045115	   -221.89788863	      6.58983491	    -12.90786401
      1.38000000	    -40.43519715	     -2.05171305	      0.95931914	    -58.40399443	    792.97141530	      6.10604500	      4.85951925	    -45.00000000	     45.00000000	    -45.00000000	     -7.54496881	  -2247.09363337	  -1370.20354437	     33.05550660	     25.43234926	   1087.94358955	     31.91381646	     17.50727482	     12.91327244	     16.61960463	     42.99384787	    -45.00000000	    -45.00000000	    -28.04462336	    793.63675046	  -2429.94730747	     20.10195820	   -179.99999979	    354.66209712	   -222.84630817	      6.52066842	    -12.99535397
      1.39000000	    -40.46000263	     -2.19031827	      1.17071579	    -60.33177258	    793.73627129	      6.36520185	      4.82539835	    -45.00000000	     45.00000000	    -45.00000000	     -7.58319665	  -2247.43836555	  -1369.88089344	     33.06008367	     25.88968691	   1088.11284049	     31.72166869	     17.61971789	     12.70291768	     16.56313807	     42.94342510	    -45.00000000	    -45.00000000	    -28.42422966	    793.85726997	  -2429.74925202	     20.08800746	   -179.99999979	    354.40881195	   -224.10634309	      6.50089386	    -13.10780328
      1.40000000	    -40.53123455	     -2.30783560	      1.38719463	    -62.58165492	    794.50277755	      6.60808260	      4.83424547	    -45.00000000	     45.00000000	    -45.00000000	     -7.69059756	  -2247.79142032	  -1369.63679152	     33.01822040	     26.22144497	   1088.29127543	     31.44183798	     17.71673346	     12.53012181	     16.67613701	     42.84897256	    -45.00000000	    -45.00000000	    -28.90333552	    794.12933653	  -2429.50916126	     20.09763029	   -179.99999979	    354.09668028	   -225.88775099	      6.48232502	    -13.19618141
      1.41000000	    -40.62829016	     -2.35818660	      1.48388827	    -65.14302042	    795.27807537	      6.83603720	      4.76282277	    -45.00000000	     45.00000000	    -45.00000000	     -7.74123901	  -2248.19383211	  -1369.39536865	     33.10704691	     26.70162495	   1088.40083292	     31.20316398	     17.87877535	     12.37189026	     16.47702310	     42.60704379	    -45.00000000	    -45.00000000	    -29.16068317	    794.53329836	  -2429.31569816	     20.22014113	   -179.99999979	    353.99119148	   -227.59277552	      6.49597892	    -13.23657893
      1.42000000	    -40.70333629	     -2.16068125	      1.30439750	    -68.02008772	    796.07406533	      7.05143530	      4.69739712	    -45.00000000	     45.00000000	    -45.00000000	     -7.80148753	  -2248.63240804	  -1369.11632518	     33.43794541	     27.27885248	   1088.54470965	     30.97542964	     18.05938428	     12.22200823	     16.49662426	     42.41951453	    -45.00000000	    -45.00000000	    -29.56034417	    795.11214477	  -2428.94409553	     20.60006166	   -179.99999979	    353.77975394	   -229.34974982	      6.47646334	    -13.37274851
      1.43000000	    -40.77216481	     -2.27553208	      1.54806384	    -71.20367241	    796.89962331	      7.25420519	      4.63944568	    -45.00000000	     45.00000000	    -45.00000000	     -7.84510804	  -2249.09963100	  -1368.89202291	     33.27922197	     27.83313970	   1088.83307391	     30.70733841	     18.23407927	     11.99969692	     16.46972838	     42.73949878	    -45.00000000	    -45.00000000	    -30.17156786	    795.29016226	  -2428.62916887	     20.39655263	   -179.99999979	    353.24694307	   -231.30358597	      6.51580339	    -13.52715850
      1.44000000	    -40.87744014	     -2.25280371	      1.56905624	    -74.68365342	    797.76496163	      7.44248829	      4.61750792	    -45.00000000	     45.00000000	    -45.00000000	     -8.08729443	  -2249.58714349	  -1368.65053253	     33.47686400	     28.42965402	   1089.00125828	     30.45004526	     18.41106275	     11.83621332	     16.66711627	     42.19291576	    -45.00000000	    -45.00000000	    -30.69023511	    796.02953087	  -2428.45665475	     20.84669579	   -179.99999979	    353.03273102	   -233.42211740	      6.55150431	    -13.56289484
